<svg xmlns="http://www.w3.org/2000/svg" style="isolation:isolate" width="32" height="32"><defs><clipPath id="a"><path d="M0 0h32v32H0z"/></clipPath></defs><g clip-path="url(#a)"><path d="M1.778 0C.796 0 0 .796 0 1.778 0 18.469 13.531 32 30.222 32c.982 0 1.778-.796 1.778-1.778V24c0-.982-.796-1.778-1.778-1.778-2.222 0-4.355-.355-6.346-1.013a1.813 1.813 0 0 0-1.814.427l-3.911 3.911A26.742 26.742 0 0 1 6.436 13.831l3.911-3.929c.48-.456.654-1.149.444-1.778a20.204 20.204 0 0 1-1.013-6.346A1.778 1.778 0 0 0 8 0H1.778zm26.666 14.222v-2.666h-6.222L32 1.778 30.222 0l-9.778 9.778V3.556h-2.666v10.666h10.666z"/></g></svg>