<svg xmlns="http://www.w3.org/2000/svg" style="isolation:isolate" viewBox="2 0 32 32" width="32" height="32"><defs><clipPath id="a"><path d="M2 0h32v32H2z"/></clipPath></defs><g clip-path="url(#a)"><path d="M3.778 0C2.796 0 2 .796 2 1.778 2 18.469 15.531 32 32.222 32c.982 0 1.778-.796 1.778-1.778V24c0-.982-.796-1.778-1.778-1.778-2.222 0-4.355-.355-6.346-1.013a1.813 1.813 0 0 0-1.814.427l-3.911 3.911A26.742 26.742 0 0 1 8.436 13.831l3.911-3.929c.48-.456.654-1.149.444-1.778a20.204 20.204 0 0 1-1.013-6.346A1.778 1.778 0 0 0 10 0H3.778zm19.555 0v2.667h6.223l-9.778 9.777 1.778 1.778 9.777-9.778v6.223H34V0H23.333z"/></g></svg>